<svg width="44" height="44" viewBox="0 0 44 44" fill="none" xmlns="http://www.w3.org/2000/svg">
<path d="M22.5 13.1582C22.6561 13.9093 22.8275 14.6036 23.0254 15.2422C23.5414 16.9072 24.2603 18.3053 25.4004 19.4102C26.5398 20.5143 27.9622 21.1919 29.6475 21.6611C30.0807 21.7818 30.5391 21.8889 31.0225 21.9883C30.5382 22.0885 30.0795 22.198 29.6455 22.3193C27.9606 22.7904 26.5393 23.4686 25.4004 24.5723C24.2607 25.6767 23.5415 27.073 23.0254 28.7363C22.8205 29.3967 22.6438 30.1167 22.4834 30.8975C22.3188 30.1246 22.1399 29.4134 21.9336 28.7617C21.4125 27.1155 20.6955 25.7391 19.5615 24.6484C18.4306 23.5608 17.0231 22.8893 15.3555 22.4092C14.8655 22.2681 14.3424 22.1428 13.7861 22.0254C14.3405 21.9156 14.8634 21.7976 15.3535 21.6611C17.0387 21.1919 18.4603 20.5142 19.5996 19.4102C20.7397 18.3053 21.4586 16.9072 21.9746 15.2422C22.1725 14.6036 22.3439 13.9093 22.5 13.1582Z" stroke="#001622" stroke-width="3.5"/>
</svg>
