<svg width="44" height="44" viewBox="0 0 44 44" fill="none" xmlns="http://www.w3.org/2000/svg">
<path d="M22.5 8.90039C22.5675 8.90039 22.6066 8.92118 22.6289 8.94043C22.6506 8.9593 22.6837 9.00021 22.6973 9.08691C23.0174 11.4823 23.3516 13.4242 23.8369 14.9902C24.327 16.5717 24.9878 17.8264 25.9922 18.7998C26.9962 19.7726 28.273 20.3958 29.875 20.8418C31.4639 21.2842 33.4286 21.5657 35.8525 21.8213V21.8223C35.9749 21.8367 36.0396 21.8821 36.0664 21.9092C36.0888 21.9319 36.0996 21.955 36.0996 21.9932C36.0995 22.0316 36.0889 22.0524 36.0703 22.0713C36.0477 22.094 35.9885 22.1356 35.873 22.1465L35.8623 22.1475C33.4333 22.407 31.4651 22.6928 29.874 23.1377C28.2722 23.5856 26.9959 24.21 25.9922 25.1826C24.9881 26.1557 24.328 27.4087 23.8379 28.9883C23.3525 30.5525 23.0174 32.492 22.6973 34.8838C22.6833 34.9738 22.6473 35.0218 22.6211 35.0449C22.5954 35.0674 22.5582 35.0859 22.5 35.0859C22.4419 35.0859 22.4046 35.0674 22.3789 35.0449C22.3526 35.0217 22.3157 34.9737 22.3018 34.8838C21.9592 32.4934 21.6132 30.5661 21.123 29.0176C20.6283 27.4549 19.9711 26.221 18.9727 25.2607C17.9757 24.3019 16.7097 23.6842 15.1201 23.2266C13.5408 22.7719 11.5817 22.4589 9.15625 22.1494L9.1416 22.1484L9.12695 22.1465L9.05078 22.1338C8.98433 22.1165 8.94669 22.0884 8.92969 22.0713C8.91104 22.0524 8.90047 22.0316 8.90039 21.9932C8.90039 21.955 8.91116 21.9319 8.93359 21.9092C8.96043 21.882 9.02512 21.8367 9.14746 21.8223L9.14648 21.8213C11.5708 21.5656 13.5359 21.2842 15.125 20.8418C16.727 20.3958 18.0038 19.7726 19.0078 18.7998C20.0122 17.8264 20.673 16.5717 21.1631 14.9902C21.6484 13.4242 21.9826 11.4823 22.3027 9.08691C22.3163 9.00025 22.3493 8.95932 22.3711 8.94043C22.3934 8.92115 22.4325 8.9004 22.5 8.90039Z" stroke="#001622" stroke-width="1.8"/>
</svg>
