<svg width="20" height="20" viewBox="0 0 20 20" fill="none" xmlns="http://www.w3.org/2000/svg">
<path d="M3.28571 3.94873C2.94472 3.94873 2.6177 4.08561 2.37658 4.32925C2.13546 4.5729 2 4.90335 2 5.24792V17.5902C2 17.9348 2.13546 18.2653 2.37658 18.5089C2.6177 18.7525 2.94472 18.8894 3.28571 18.8894H17.4286C17.7695 18.8894 18.0966 18.7525 18.3377 18.5089C18.5788 18.2653 18.7143 17.9348 18.7143 17.5902V5.24792C18.7143 4.90335 18.5788 4.5729 18.3377 4.32925C18.0966 4.08561 17.7695 3.94873 17.4286 3.94873H14.8571" stroke="#1A1D20" stroke-width="1.2" stroke-linecap="round" stroke-linejoin="round"/>
<path d="M2 8.49585H18.7143" stroke="#1A1D20" stroke-width="1.2" stroke-linecap="round" stroke-linejoin="round"/>
<path d="M5.85712 2V5.89757" stroke="#1A1D20" stroke-width="1.2" stroke-linecap="round" stroke-linejoin="round"/>
<path d="M14.8571 2V5.89757" stroke="#1A1D20" stroke-width="1.2" stroke-linecap="round" stroke-linejoin="round"/>
<path d="M5.85712 3.94873H12.2857" stroke="#1A1D20" stroke-width="1.2" stroke-linecap="round" stroke-linejoin="round"/>
</svg>
