<svg width="44" height="44" viewBox="0 0 44 44" fill="none" xmlns="http://www.w3.org/2000/svg">
<path d="M31.2951 14.5938C33.9355 14.5938 36.0759 12.4461 36.0759 9.79688C36.0759 7.14764 33.9355 5 31.2951 5C28.6546 5 26.5142 7.14764 26.5142 9.79688C26.5142 12.4461 28.6546 14.5938 31.2951 14.5938Z" stroke="#001622" stroke-width="3.5" stroke-linecap="round" stroke-linejoin="round"/>
<path d="M38.4664 26.5867V24.1882C38.4664 20.2142 35.2558 16.9927 31.2951 16.9927C28.5942 16.9927 26.2421 18.4907 25.019 20.7037" stroke="#001622" stroke-width="3.5" stroke-linecap="round" stroke-linejoin="round"/>
<path d="M12.1715 14.5938C14.8119 14.5938 16.9524 12.4461 16.9524 9.79688C16.9524 7.14764 14.8119 5 12.1715 5C9.53104 5 7.39056 7.14764 7.39056 9.79688C7.39056 12.4461 9.53104 14.5938 12.1715 14.5938Z" stroke="#001622" stroke-width="3.5" stroke-linecap="round" stroke-linejoin="round"/>
<path d="M5 26.5867V24.1882C5 20.2142 8.21079 16.9927 12.1715 16.9927C14.8723 16.9927 17.2244 18.4907 18.4475 20.7037" stroke="#001622" stroke-width="3.5" stroke-linecap="round" stroke-linejoin="round"/>
<path d="M21.7359 28.979C24.3763 28.979 26.5168 26.8314 26.5168 24.1821C26.5168 21.5329 24.3763 19.3853 21.7359 19.3853C19.0955 19.3853 16.955 21.5329 16.955 24.1821C16.955 26.8314 19.0955 28.979 21.7359 28.979Z" stroke="#001622" stroke-width="3.5" stroke-linecap="round" stroke-linejoin="round"/>
<path d="M28.908 38.5725C28.908 34.5986 25.6972 31.3772 21.7365 31.3772C17.7758 31.3772 14.565 34.5986 14.565 38.5725" stroke="#001622" stroke-width="3.5" stroke-linecap="round" stroke-linejoin="round"/>
</svg>
