<svg width="38" height="38" viewBox="0 0 38 38" fill="none" xmlns="http://www.w3.org/2000/svg">
<g clip-path="url(#clip0_530_1060)">
<path d="M28.383 11.5938C31.0322 11.5938 33.1799 9.44613 33.1799 6.79688C33.1799 4.14764 31.0322 2 28.383 2C25.7338 2 23.5861 4.14764 23.5861 6.79688C23.5861 9.44613 25.7338 11.5938 28.383 11.5938Z" stroke="#001622" stroke-width="1.9" stroke-linecap="round" stroke-linejoin="round"/>
<path d="M35.5783 23.5867V21.1882C35.5783 17.2142 32.3569 13.9927 28.383 13.9927C25.6731 13.9927 23.3131 15.4907 22.0859 17.7037" stroke="#001622" stroke-width="1.9" stroke-linecap="round" stroke-linejoin="round"/>
<path d="M9.19544 11.5938C11.8447 11.5938 13.9923 9.44613 13.9923 6.79688C13.9923 4.14764 11.8447 2 9.19544 2C6.5462 2 4.39856 4.14764 4.39856 6.79688C4.39856 9.44613 6.5462 11.5938 9.19544 11.5938Z" stroke="#001622" stroke-width="1.9" stroke-linecap="round" stroke-linejoin="round"/>
<path d="M2 23.5867V21.1882C2 17.2142 5.22153 13.9927 9.19548 13.9927C11.9053 13.9927 14.2653 15.4907 15.4925 17.7037" stroke="#001622" stroke-width="1.9" stroke-linecap="round" stroke-linejoin="round"/>
<path d="M18.7919 25.979C21.4411 25.979 23.5888 23.8314 23.5888 21.1821C23.5888 18.5329 21.4411 16.3853 18.7919 16.3853C16.1426 16.3853 13.995 18.5329 13.995 21.1821C13.995 23.8314 16.1426 25.979 18.7919 25.979Z" stroke="#001622" stroke-width="1.9" stroke-linecap="round" stroke-linejoin="round"/>
<path d="M25.9879 35.5725C25.9879 31.5986 22.7664 28.3772 18.7924 28.3772C14.8185 28.3772 11.597 31.5986 11.597 35.5725" stroke="#001622" stroke-width="1.9" stroke-linecap="round" stroke-linejoin="round"/>
</g>
<defs>
<clipPath id="clip0_530_1060">
<rect width="37.3091" height="37.3091" fill="white"/>
</clipPath>
</defs>
</svg>
