<svg width="38" height="38" viewBox="0 0 38 38" fill="none" xmlns="http://www.w3.org/2000/svg">
<path d="M31.4905 4.28564L27.7602 36.0475H10.352L6.6217 4.28564" stroke="#9F9F9F" stroke-linecap="round"/>
<path d="M31.6122 4.28571C31.6122 4.45509 31.4643 4.75791 30.8305 5.13497C30.2294 5.49267 29.3261 5.83226 28.1661 6.12418C25.8538 6.70611 22.6327 7.07143 19.0561 7.07143C15.4795 7.07143 12.2584 6.70611 9.94607 6.12418C8.78607 5.83226 7.88286 5.49267 7.28168 5.13497C6.64796 4.75791 6.5 4.45509 6.5 4.28571C6.5 4.11634 6.64796 3.81352 7.28168 3.43646C7.88286 3.07876 8.78607 2.73917 9.94607 2.44724C12.2584 1.86532 15.4795 1.5 19.0561 1.5C22.6327 1.5 25.8538 1.86532 28.1661 2.44724C29.3261 2.73917 30.2294 3.07876 30.8305 3.43646C31.4643 3.81352 31.6122 4.11634 31.6122 4.28571Z" stroke="#9F9F9F"/>
</svg>
