<svg width="26" height="26" viewBox="0 0 26 26" fill="none" xmlns="http://www.w3.org/2000/svg">
<ellipse cx="14.6079" cy="16.4575" rx="4.31869" ry="6.04617" fill="#FFCE51"/>
<path d="M21.4948 13.4056C19.6867 8.70686 13.249 8.4535 14.8037 1.6242C14.9189 1.11748 14.3776 0.725914 13.94 0.990794C9.75947 3.45533 6.75366 8.39591 9.27578 14.8682C9.48308 15.398 8.86119 15.8932 8.41204 15.5477C6.32755 13.9699 6.10874 11.7012 6.293 10.0773C6.3621 9.47847 5.57898 9.19055 5.245 9.68576C4.46188 10.8835 3.66724 12.8183 3.66724 15.7319C4.10486 22.1812 9.55218 24.162 11.51 24.4154C14.3085 24.7724 17.3373 24.2542 19.514 22.2618C21.9094 20.0391 22.7847 16.492 21.4948 13.4056ZM10.8075 19.1984C12.4659 18.7953 13.3181 17.5976 13.5484 16.5381C13.9285 14.8912 12.4428 13.2789 13.4448 10.6762C13.8248 12.8298 17.2107 14.1772 17.2107 16.5266C17.3028 19.4403 14.1473 21.9393 10.8075 19.1984Z" fill="#FF7324"/>
</svg>
