<svg width="18" height="18" viewBox="0 0 18 18" fill="none" xmlns="http://www.w3.org/2000/svg">
<path d="M6.9239 3.88437L7.42826 2.68899C7.51332 2.48659 7.66297 2.31251 7.85761 2.18952C8.05226 2.06654 8.28281 2.0004 8.51908 1.99976H9.48089C9.71716 2.0004 9.94773 2.06654 10.1424 2.18952C10.337 2.31251 10.4867 2.48659 10.5717 2.68899L11.0761 3.88437L12.7885 4.78899L14.1726 4.59514C14.4031 4.56642 14.6376 4.60125 14.8465 4.69521C15.0553 4.78917 15.229 4.93801 15.3455 5.12283L15.8147 5.87668C15.9349 6.06444 15.9904 6.28126 15.9736 6.49852C15.9568 6.71577 15.8687 6.92326 15.7208 7.0936L14.8646 8.09514V9.90437L15.7443 10.9059C15.8922 11.0762 15.9803 11.2837 15.9971 11.501C16.0138 11.7183 15.9584 11.9351 15.8381 12.1228L15.369 12.8767C15.2525 13.0615 15.0788 13.2103 14.87 13.3043C14.6611 13.3982 14.4265 13.4331 14.196 13.4044L12.812 13.2105L11.0995 14.1151L10.5952 15.3105C10.5101 15.5129 10.3605 15.687 10.1658 15.81C9.97119 15.933 9.74062 15.9991 9.50435 15.9998H8.51908C8.28281 15.9991 8.05226 15.933 7.85761 15.81C7.66297 15.687 7.51332 15.5129 7.42826 15.3105L6.9239 14.1151L5.21141 13.2105L3.82735 13.4044C3.5969 13.4331 3.36233 13.3982 3.15348 13.3043C2.94464 13.2103 2.77093 13.0615 2.65442 12.8767L2.18525 12.1228C2.06502 11.9351 2.00964 11.7183 2.02639 11.501C2.04314 11.2837 2.13125 11.0762 2.27908 10.9059L3.13532 9.90437V8.09514L2.25562 7.0936C2.10779 6.92326 2.01968 6.71577 2.00293 6.49852C1.98618 6.28126 2.04156 6.06444 2.16179 5.87668L2.63096 5.12283C2.74747 4.93801 2.92118 4.78917 3.13002 4.69521C3.33887 4.60125 3.57344 4.56642 3.8039 4.59514L5.18796 4.78899L6.9239 3.88437ZM6.65412 8.99976C6.65412 9.42574 6.79171 9.84217 7.04947 10.1964C7.30725 10.5506 7.67361 10.8266 8.10226 10.9897C8.53092 11.1527 9.00259 11.1953 9.45764 11.1122C9.91269 11.0291 10.3307 10.824 10.6588 10.5228C10.9868 10.2215 11.2103 9.83775 11.3008 9.41995C11.3913 9.00215 11.3448 8.56908 11.1673 8.17551C10.9897 7.78195 10.6891 7.44556 10.3033 7.2089C9.9175 6.97223 9.46395 6.84591 8.99999 6.84591C8.37783 6.84591 7.78115 7.07283 7.34121 7.47676C6.90128 7.88068 6.65412 8.42852 6.65412 8.99976Z" fill="white" stroke="#001622" stroke-linecap="round" stroke-linejoin="round"/>
</svg>
