<svg width="44" height="44" viewBox="0 0 44 44" fill="none" xmlns="http://www.w3.org/2000/svg">
<path d="M32.7712 18.1035C37.72 25.0725 33.9342 33.0548 32.1031 36.1685C31.8346 36.604 31.4739 36.9757 31.0466 37.2575C30.619 37.5391 30.1352 37.7242 29.6287 37.7994C26.0408 38.4173 17.1082 39.1094 12.3079 32.1402C7.5818 25.5667 7.77975 14.0012 8.2004 8.49023C8.21698 8.07965 8.33095 7.67888 8.53296 7.32088C8.73497 6.9629 9.0192 6.65795 9.36228 6.43113C9.70535 6.2043 10.0974 6.0621 10.5063 6.01622C10.9152 5.97035 11.3291 6.0221 11.714 6.16724C17.034 7.69944 28.1193 11.5299 32.7712 18.1035Z" stroke="#001622" stroke-width="1.8" stroke-linecap="round" stroke-linejoin="round"/>
<path d="M16.0937 15.8052C21.7614 22.4758 26.7357 29.7042 30.9401 37.3793" stroke="#001622" stroke-width="1.8" stroke-linecap="round" stroke-linejoin="round"/>
</svg>
