<svg width="44" height="44" viewBox="0 0 44 44" fill="none" xmlns="http://www.w3.org/2000/svg">
<path d="M32.6886 18.1035C37.6209 25.0725 33.8477 33.0548 32.0228 36.1685C31.7552 36.604 31.3956 36.9757 30.9697 37.2575C30.5436 37.5391 30.0614 37.7242 29.5566 37.7994C25.9806 38.4173 17.0779 39.1094 12.2935 32.1402C7.58319 25.5667 7.78049 14.0012 8.19973 8.49023C8.21625 8.07965 8.32984 7.67888 8.53118 7.32088C8.73252 6.9629 9.0158 6.65795 9.35773 6.43113C9.69967 6.2043 10.0905 6.0621 10.498 6.01622C10.9055 5.97035 11.318 6.0221 11.7017 6.16724C17.0039 7.69944 28.0522 11.5299 32.6886 18.1035Z" fill="white" stroke="#001622" stroke-width="3.5" stroke-linecap="round" stroke-linejoin="round"/>
<path d="M16.0667 15.8052C21.7155 22.4758 26.6733 29.7042 30.8637 37.3793Z" fill="white"/>
<path d="M16.0667 15.8052C21.7155 22.4758 26.6733 29.7042 30.8637 37.3793" stroke="#001622" stroke-width="3.5" stroke-linecap="round" stroke-linejoin="round"/>
</svg>
