<svg width="44" height="44" viewBox="0 0 44 44" fill="none" xmlns="http://www.w3.org/2000/svg">
<path d="M19.8107 5.1442C19.6533 5.04983 19.4733 5 19.2899 5C19.1065 5 18.9265 5.04983 18.7691 5.1442C18.6392 5.24744 18.5515 5.39489 18.5227 5.55861C18.494 5.72234 18.526 5.89097 18.6128 6.03259C21.816 11.5981 22.4931 19.1755 18.118 23.3562C16.4347 21.9369 15.0983 20.1491 14.2117 18.1304C12.5938 19.0319 11.253 20.361 10.3348 21.9732C9.41655 23.5855 8.95606 25.4192 9.0033 27.2755C9.06936 28.9119 9.46097 30.5185 10.1551 32.0009C10.8492 33.4833 11.8318 34.8111 13.0451 35.9067C14.2583 37.0024 15.6778 37.8434 17.2198 38.3805C18.7619 38.9173 20.3954 39.1395 22.0243 39.0336C30.4098 39.0336 34.7588 33.8079 35.0453 27.2755C35.3839 19.4368 29.8369 9.79518 19.8107 5.1442Z" stroke="#001622" stroke-width="3.5" stroke-linecap="round" stroke-linejoin="round"/>
</svg>
