<svg width="44" height="44" viewBox="0 0 44 44" fill="none" xmlns="http://www.w3.org/2000/svg">
<path d="M19.8469 5.1442C19.6889 5.04983 19.5083 5 19.3243 5C19.1403 5 18.9597 5.04983 18.8017 5.1442C18.6714 5.24744 18.5835 5.39489 18.5546 5.55861C18.5257 5.72234 18.5579 5.89097 18.6449 6.03259C21.8588 11.5981 22.5382 19.1755 18.1485 23.3562C16.4596 21.9369 15.1187 20.1491 14.2291 18.1304C12.6058 19.0319 11.2605 20.361 10.3392 21.9732C9.41794 23.5855 8.95592 25.4192 9.00331 27.2755C9.0696 28.9119 9.46251 30.5185 10.1589 32.0009C10.8554 33.4833 11.8413 34.8111 13.0586 35.9067C14.2759 37.0024 15.7001 37.8434 17.2473 38.3805C18.7945 38.9173 20.4335 39.1395 22.0679 39.0336C30.4814 39.0336 34.845 33.8079 35.1324 27.2755C35.4722 19.4368 29.9066 9.79518 19.8469 5.1442Z" stroke="#001622" stroke-width="1.8" stroke-linecap="round" stroke-linejoin="round"/>
</svg>
